<?xml version="1.0" encoding="utf-8"?>
<!-- Generator: Adobe Illustrator 17.0.0, SVG Export Plug-In . SVG Version: 6.00 Build 0)  -->
<!DOCTYPE svg PUBLIC "-//W3C//DTD SVG 1.1//EN" "http://www.w3.org/Graphics/SVG/1.1/DTD/svg11.dtd">
<svg version="1.1" id="Capa_1" xmlns="http://www.w3.org/2000/svg" xmlns:xlink="http://www.w3.org/1999/xlink" x="0px" y="0px"
	 width="12.852px" height="25.594px" viewBox="0 4.406 12.852 25.594" enable-background="new 0 4.406 12.852 25.594"
	 xml:space="preserve">
<g id="plantilla">
</g>
<g id="Fondos">
</g>
<path fill="#FF9100" d="M6.394,28.118c-1.394,0-2.526-1.13-2.526-2.526c0-1.395,1.131-2.526,2.526-2.526
	c1.395,0,2.526,1.131,2.526,2.526C8.92,26.987,7.789,28.118,6.394,28.118L6.394,28.118z M9.895,10.567l-1.244,8.376
	c-0.184,1.233-1.331,2.084-2.564,1.901c-0.996-0.148-1.743-0.929-1.896-1.872L2.84,10.612C2.525,8.666,3.848,6.833,5.795,6.519
	c1.946-0.315,3.779,1.008,4.093,2.954C9.947,9.84,9.945,10.218,9.895,10.567L9.895,10.567z M9.895,10.567"/>
</svg>
