<?xml version="1.0" encoding="utf-8"?>
<!-- Generator: Adobe Illustrator 17.0.0, SVG Export Plug-In . SVG Version: 6.00 Build 0)  -->
<!DOCTYPE svg PUBLIC "-//W3C//DTD SVG 1.1//EN" "http://www.w3.org/Graphics/SVG/1.1/DTD/svg11.dtd">
<svg version="1.1" id="Capa_1" xmlns="http://www.w3.org/2000/svg" xmlns:xlink="http://www.w3.org/1999/xlink" x="0px" y="0px"
	 width="23.868px" height="30px" viewBox="0 0 23.868 30" enable-background="new 0 0 23.868 30" xml:space="preserve">
<path fill="#0081B2" d="M14.489,25.103l0.479,0.422c0.216,0.196,0.579,0.429,1.089,0.429c0.887,0,1.609-0.722,1.609-1.61
	c0-0.448-0.186-0.866-0.524-1.175l-8.889-8.162l8.889-8.164c0.338-0.31,0.524-0.731,0.524-1.185c0-0.888-0.722-1.609-1.609-1.609
	c-0.502,0-0.868,0.237-1.086,0.437l-0.661,0.603l-0.007-0.008l-9.53,8.733c-0.326,0.305-0.517,0.743-0.517,1.194
	c0,0.451,0.189,0.883,0.518,1.187L14.489,25.103z"/>
</svg>
