<?xml version="1.0" encoding="utf-8"?>
<!-- Generator: Adobe Illustrator 17.0.0, SVG Export Plug-In . SVG Version: 6.00 Build 0)  -->
<!DOCTYPE svg PUBLIC "-//W3C//DTD SVG 1.1//EN" "http://www.w3.org/Graphics/SVG/1.1/DTD/svg11.dtd">
<svg version="1.1" id="Capa_1" xmlns="http://www.w3.org/2000/svg" xmlns:xlink="http://www.w3.org/1999/xlink" x="0px" y="0px"
	 width="41px" height="30px" viewBox="0 0.106 41 30" enable-background="new 0 0.106 41 30" xml:space="preserve">
<g id="plantilla">
</g>
<g id="Fondos">
</g>
<g id="Contenidos">
	<path fill="#0081b2" d="M32.871,2.309c-1.994,0-3.795,0.793-5.134,2.067c-2.813-2.415-6.453-3.902-10.45-3.969
		C8.182,0.252,0.676,7.506,0.522,16.607c-0.088,5.165,2.212,9.803,5.875,12.886c0.239-0.206,0.495-0.397,0.781-0.555l4.888-2.682
		c0.644-0.353,1.011-1.027,1.011-1.765v-2.015c0,0-1.065-1.729-1.615-4.129c-0.459-0.294-0.385-0.804-0.385-1.385v-2.208
		c0-0.483,0-0.918,0-1.221v-3.19c0,0-0.219-4.963,6.5-4.963c6.72,0,6.5,4.963,6.5,4.963v3.19c0,0.303,0,0.738,0,1.221v2.208
		c0,0.741-0.726,1.364-1.4,1.573c-0.377,1.17-0.152,2.285-0.869,3.3c-0.183,0.255,0.269,0.47,0.269,0.641v2.066
		c0,0.762-0.454,1.458,0.227,1.798l4.829,2.633c0.316,0.158,0.381,0.355,0.643,0.578c3.551-2.96,5.734-7.385,5.821-12.37
		c3.829-0.319,6.762-3.494,6.762-7.405C40.358,5.654,36.992,2.309,32.871,2.309z M36.6,10.106h-2.524v3.404
		c0,0.343-0.655,0.623-0.998,0.623c-0.344,0-1.002-0.28-1.002-0.623v-3.404h-2.939c-0.344,0-0.623-0.657-0.623-1s0.279-1,0.623-1
		h2.939V6.043c0-0.343,0.658-0.623,1.002-0.623c0.343,0,0.998,0.28,0.998,0.623v2.063H36.6c0.344,0,0.623,0.657,0.623,1
		S36.944,10.106,36.6,10.106z"/>
</g>
</svg>
