<?xml version="1.0" encoding="utf-8"?>
<!-- Generator: Adobe Illustrator 17.0.0, SVG Export Plug-In . SVG Version: 6.00 Build 0)  -->
<!DOCTYPE svg PUBLIC "-//W3C//DTD SVG 1.1//EN" "http://www.w3.org/Graphics/SVG/1.1/DTD/svg11.dtd">
<svg version="1.1" xmlns="http://www.w3.org/2000/svg" xmlns:xlink="http://www.w3.org/1999/xlink" x="0px" y="0px" width="30px"
	 height="30px" viewBox="0 0 30 30" enable-background="new 0 0 30 30" xml:space="preserve">
<g id="plantilla">
</g>
<g id="Fondos">
</g>
<g id="Contenidos">
	<g>
		<path fill="#0081b2" d="M14.996,0.442c-8.038,0-14.554,6.517-14.554,14.554c0,8.045,6.517,14.562,14.554,14.562
			c8.045,0,14.562-6.517,14.562-14.562C29.558,6.959,23.041,0.442,14.996,0.442L14.996,0.442z M14.996,24.291
			c-1.137,0-1.912-0.877-1.912-2.014c0-1.166,0.811-2.014,1.912-2.014c1.174,0,1.92,0.848,1.92,2.014
			C16.916,23.415,16.17,24.291,14.996,24.291L14.996,24.291z M15.754,16.602c-0.29,0.989-1.203,1.007-1.51,0
			c-0.349-1.162-1.592-5.563-1.592-8.424c0-3.773,4.721-3.791,4.721,0C17.367,11.058,16.058,15.571,15.754,16.602L15.754,16.602z
			 M15.754,16.602"/>
	</g>
</g>
</svg>
