<?xml version="1.0" encoding="utf-8"?>
<!-- Generator: Adobe Illustrator 17.0.0, SVG Export Plug-In . SVG Version: 6.00 Build 0)  -->
<!DOCTYPE svg PUBLIC "-//W3C//DTD SVG 1.1//EN" "http://www.w3.org/Graphics/SVG/1.1/DTD/svg11.dtd">
<svg version="1.1" id="Capa_1" xmlns="http://www.w3.org/2000/svg" xmlns:xlink="http://www.w3.org/1999/xlink" x="0px" y="0px"
	 width="130px" height="21.111px" viewBox="0 0 130 21.111" enable-background="new 0 0 130 21.111" xml:space="preserve">
<g id="plantilla">
</g>
<g id="Fondos">
</g>
<g>
	<path fill="#FFFFFF" d="M4.316,5.885h1.619c0.444,0,0.866,0.044,1.267,0.131c0.4,0.087,0.751,0.235,1.051,0.444
		c0.301,0.208,0.538,0.483,0.712,0.823c0.174,0.339,0.261,0.762,0.261,1.267c0,0.4-0.078,0.763-0.235,1.09
		c-0.157,0.326-0.401,0.603-0.731,0.829c0.296,0.07,0.559,0.185,0.79,0.346c0.23,0.16,0.426,0.354,0.587,0.58
		c0.161,0.227,0.283,0.475,0.366,0.745c0.082,0.27,0.124,0.553,0.124,0.849c0,0.487-0.091,0.906-0.274,1.253
		c-0.183,0.349-0.435,0.633-0.757,0.856c-0.323,0.222-0.697,0.384-1.123,0.484c-0.427,0.1-0.884,0.15-1.371,0.15H4.316V5.885z
		 M5.413,10.22h0.418c0.313,0,0.609-0.015,0.888-0.046c0.278-0.03,0.522-0.102,0.731-0.215c0.209-0.114,0.374-0.281,0.496-0.503
		c0.122-0.222,0.183-0.525,0.183-0.908c0-0.375-0.057-0.671-0.17-0.889c-0.113-0.218-0.27-0.383-0.47-0.496
		c-0.2-0.113-0.44-0.185-0.718-0.216c-0.278-0.03-0.588-0.046-0.927-0.046H5.413V10.22z M5.413,14.714H6.51
		c0.305,0,0.607-0.024,0.908-0.072c0.3-0.048,0.57-0.137,0.809-0.268c0.24-0.131,0.433-0.314,0.581-0.548
		c0.148-0.235,0.222-0.54,0.222-0.914c0-0.384-0.083-0.69-0.248-0.921c-0.166-0.23-0.377-0.406-0.633-0.528
		c-0.257-0.122-0.544-0.203-0.862-0.242c-0.318-0.038-0.625-0.058-0.921-0.058H5.413V14.714z"/>
	<path fill="#FFFFFF" d="M16.438,5.715c0.705,0,1.369,0.133,1.992,0.399s1.166,0.631,1.633,1.097
		c0.466,0.466,0.834,1.008,1.104,1.626c0.269,0.619,0.405,1.28,0.405,1.985c0,0.705-0.136,1.367-0.405,1.984
		c-0.27,0.619-0.638,1.156-1.104,1.613c-0.466,0.457-1.01,0.818-1.633,1.084c-0.622,0.266-1.287,0.399-1.992,0.399
		c-0.705,0-1.369-0.133-1.992-0.399c-0.622-0.266-1.166-0.627-1.633-1.084c-0.466-0.457-0.834-0.995-1.103-1.613
		c-0.27-0.618-0.405-1.28-0.405-1.984c0-0.706,0.135-1.367,0.405-1.985c0.269-0.619,0.638-1.161,1.103-1.626
		c0.466-0.466,1.01-0.831,1.633-1.097C15.069,5.848,15.733,5.715,16.438,5.715z M16.438,6.734c-0.566,0-1.095,0.106-1.587,0.32
		c-0.492,0.213-0.918,0.505-1.28,0.875s-0.647,0.804-0.856,1.3s-0.314,1.022-0.314,1.579c0,0.558,0.105,1.082,0.314,1.574
		s0.496,0.924,0.862,1.293c0.366,0.37,0.794,0.663,1.287,0.881c0.492,0.218,1.017,0.326,1.574,0.326
		c0.557,0,1.082-0.108,1.574-0.326c0.492-0.218,0.92-0.511,1.286-0.881c0.366-0.37,0.653-0.801,0.862-1.293
		c0.209-0.492,0.314-1.016,0.314-1.574c0-0.557-0.104-1.083-0.314-1.579c-0.209-0.496-0.494-0.93-0.855-1.3
		c-0.361-0.37-0.788-0.662-1.28-0.875C17.533,6.84,17.004,6.734,16.438,6.734z"/>
	<path fill="#FFFFFF" d="M27.666,5.715c0.705,0,1.369,0.133,1.992,0.399s1.166,0.631,1.633,1.097
		c0.466,0.466,0.834,1.008,1.104,1.626c0.269,0.619,0.405,1.28,0.405,1.985c0,0.705-0.136,1.367-0.405,1.984
		c-0.27,0.619-0.638,1.156-1.104,1.613c-0.466,0.457-1.01,0.818-1.633,1.084c-0.622,0.266-1.287,0.399-1.992,0.399
		s-1.369-0.133-1.992-0.399c-0.622-0.266-1.166-0.627-1.633-1.084c-0.466-0.457-0.834-0.995-1.103-1.613
		c-0.27-0.618-0.405-1.28-0.405-1.984c0-0.706,0.135-1.367,0.405-1.985c0.269-0.619,0.638-1.161,1.103-1.626
		c0.466-0.466,1.01-0.831,1.633-1.097C26.297,5.848,26.96,5.715,27.666,5.715z M27.666,6.734c-0.566,0-1.095,0.106-1.587,0.32
		c-0.492,0.213-0.918,0.505-1.28,0.875s-0.647,0.804-0.856,1.3c-0.209,0.496-0.314,1.022-0.314,1.579
		c0,0.558,0.105,1.082,0.314,1.574c0.209,0.492,0.496,0.924,0.862,1.293c0.366,0.37,0.794,0.663,1.287,0.881
		c0.492,0.218,1.017,0.326,1.574,0.326c0.557,0,1.082-0.108,1.574-0.326c0.492-0.218,0.92-0.511,1.286-0.881
		c0.366-0.37,0.653-0.801,0.862-1.293c0.209-0.492,0.314-1.016,0.314-1.574c0-0.557-0.104-1.083-0.314-1.579
		c-0.209-0.496-0.494-0.93-0.855-1.3c-0.361-0.37-0.788-0.662-1.28-0.875C28.76,6.84,28.232,6.734,27.666,6.734z"/>
	<path fill="#FFFFFF" d="M39.784,5.885h1.476l-4.623,4.584l4.78,5.263h-1.515l-4.036-4.519l-0.274,0.274v4.245h-1.097V5.885h1.097
		v4.218L39.784,5.885z"/>
	<path fill="#FFFFFF" d="M43.597,15.732h-1.097V5.885h1.097V15.732z"/>
	<path fill="#FFFFFF" d="M45.661,5.467l7.679,8.045V5.885h1.097v10.291l-7.679-8.032v7.588h-1.097V5.467z"/>
	<path fill="#FFFFFF" d="M65.643,10.782c0.008,0.331,0.002,0.648-0.02,0.953c-0.022,0.305-0.07,0.6-0.144,0.887
		c-0.074,0.288-0.179,0.566-0.313,0.836c-0.136,0.27-0.316,0.536-0.542,0.796c-0.453,0.523-1.002,0.928-1.646,1.215
		c-0.645,0.288-1.31,0.432-1.998,0.432c-0.697,0-1.352-0.135-1.966-0.405c-0.614-0.27-1.149-0.633-1.606-1.09
		c-0.457-0.457-0.821-0.993-1.09-1.607c-0.27-0.613-0.405-1.269-0.405-1.965c0-0.706,0.135-1.369,0.405-1.992
		s0.636-1.164,1.097-1.626c0.461-0.461,1.005-0.827,1.633-1.097c0.627-0.27,1.293-0.405,1.998-0.405c0.87,0,1.652,0.185,2.344,0.555
		c0.692,0.371,1.3,0.895,1.822,1.574l-0.797,0.744c-0.418-0.582-0.903-1.037-1.456-1.365c-0.553-0.326-1.195-0.489-1.926-0.489
		c-0.566,0-1.093,0.111-1.58,0.333c-0.488,0.222-0.912,0.521-1.274,0.895c-0.361,0.374-0.646,0.809-0.855,1.305
		c-0.209,0.496-0.314,1.024-0.314,1.58c0,0.523,0.1,1.024,0.3,1.502c0.2,0.479,0.483,0.907,0.849,1.281
		c0.366,0.366,0.792,0.665,1.28,0.901c0.487,0.235,0.993,0.352,1.515,0.352c0.426,0,0.849-0.073,1.267-0.222
		c0.418-0.148,0.794-0.359,1.129-0.633c0.335-0.274,0.605-0.598,0.81-0.972c0.205-0.374,0.307-0.792,0.307-1.254h-2.925v-1.018
		H65.643z"/>
	<g>
		<path fill="#FFFFFF" d="M86.165,7.857c-0.2-0.339-0.429-0.603-0.686-0.79c-0.257-0.187-0.595-0.281-1.012-0.281
			c-0.218,0-0.425,0.037-0.62,0.111c-0.196,0.074-0.37,0.179-0.523,0.314c-0.152,0.135-0.272,0.297-0.359,0.484
			c-0.087,0.187-0.131,0.393-0.131,0.62c0,0.209,0.05,0.394,0.15,0.556c0.1,0.16,0.224,0.302,0.372,0.424
			c0.148,0.122,0.314,0.226,0.496,0.314s0.357,0.17,0.522,0.248l0.653,0.288c0.322,0.139,0.624,0.289,0.908,0.451
			c0.283,0.16,0.533,0.348,0.751,0.561c0.217,0.214,0.39,0.461,0.516,0.744c0.126,0.284,0.189,0.621,0.189,1.013
			c0,0.435-0.081,0.838-0.242,1.207c-0.161,0.371-0.383,0.691-0.666,0.96c-0.283,0.27-0.612,0.484-0.986,0.641
			c-0.374,0.156-0.775,0.235-1.202,0.235c-0.392,0-0.757-0.062-1.097-0.183c-0.34-0.122-0.642-0.294-0.908-0.517
			s-0.49-0.489-0.673-0.802c-0.183-0.314-0.314-0.662-0.392-1.045l1.071-0.301c0.035,0.253,0.109,0.49,0.222,0.712
			s0.255,0.416,0.425,0.58c0.17,0.166,0.368,0.297,0.594,0.392c0.226,0.096,0.47,0.143,0.731,0.143c0.261,0,0.514-0.048,0.758-0.143
			c0.243-0.096,0.459-0.229,0.646-0.399c0.187-0.169,0.337-0.372,0.451-0.607s0.17-0.492,0.17-0.771
			c0-0.287-0.053-0.531-0.157-0.731c-0.105-0.201-0.242-0.374-0.412-0.523c-0.17-0.148-0.363-0.276-0.581-0.385
			c-0.218-0.109-0.44-0.216-0.666-0.32l-0.6-0.261c-0.287-0.131-0.562-0.27-0.823-0.418c-0.261-0.148-0.49-0.318-0.686-0.509
			c-0.196-0.192-0.35-0.417-0.463-0.673c-0.113-0.257-0.17-0.564-0.17-0.921c0-0.383,0.074-0.729,0.222-1.037
			c0.148-0.309,0.351-0.573,0.607-0.791s0.551-0.385,0.882-0.503c0.331-0.118,0.679-0.176,1.045-0.176
			c0.548,0,1.045,0.133,1.489,0.399c0.444,0.266,0.797,0.642,1.058,1.13L86.165,7.857z"/>
		<path fill="#FFFFFF" d="M90.096,15.785h-1.097V5.938h1.619c0.427,0,0.851,0.026,1.273,0.079c0.422,0.052,0.812,0.2,1.169,0.443
			c0.366,0.253,0.642,0.579,0.829,0.98c0.188,0.401,0.281,0.823,0.281,1.267c0,0.401-0.081,0.79-0.242,1.169
			c-0.161,0.378-0.394,0.694-0.699,0.947c-0.331,0.278-0.701,0.457-1.11,0.535c-0.409,0.079-0.818,0.118-1.228,0.118h-0.797V15.785z
			 M90.096,10.456h0.731c0.305,0,0.592-0.026,0.862-0.078c0.27-0.052,0.507-0.146,0.712-0.281c0.205-0.135,0.368-0.316,0.489-0.542
			c0.122-0.226,0.183-0.519,0.183-0.876c0-0.4-0.074-0.715-0.222-0.947c-0.148-0.231-0.344-0.402-0.588-0.515
			c-0.244-0.113-0.518-0.185-0.823-0.216c-0.305-0.03-0.618-0.046-0.94-0.046h-0.405V10.456z"/>
		<path fill="#FFFFFF" d="M95.999,12.99l-1.189,2.795h-1.202l4.545-10.318l4.427,10.318h-1.214l-1.163-2.795H95.999z M98.128,8.027
			l-1.685,3.944h3.33L98.128,8.027z"/>
		<path fill="#FFFFFF" d="M111.161,8.092c-0.392-0.409-0.847-0.729-1.365-0.96c-0.518-0.231-1.064-0.345-1.639-0.345
			c-0.548,0-1.064,0.111-1.547,0.333c-0.483,0.222-0.903,0.521-1.26,0.895c-0.357,0.374-0.64,0.808-0.849,1.299
			c-0.209,0.492-0.314,1.009-0.314,1.547c0,0.54,0.105,1.056,0.314,1.549c0.209,0.491,0.494,0.925,0.856,1.299
			c0.361,0.375,0.785,0.673,1.273,0.895c0.487,0.222,1.005,0.333,1.554,0.333c0.557,0,1.095-0.119,1.613-0.359
			c0.518-0.239,0.973-0.555,1.365-0.947v1.358c-0.427,0.305-0.893,0.542-1.398,0.712c-0.505,0.17-1.019,0.255-1.541,0.255
			c-0.697,0-1.356-0.133-1.978-0.399c-0.622-0.266-1.167-0.627-1.633-1.084c-0.466-0.457-0.836-0.993-1.11-1.606
			c-0.274-0.614-0.411-1.269-0.411-1.966c0-0.705,0.135-1.369,0.405-1.992c0.27-0.622,0.638-1.166,1.104-1.633
			c0.466-0.466,1.01-0.833,1.633-1.103c0.622-0.27,1.286-0.405,1.991-0.405c1.097,0,2.077,0.322,2.939,0.966V8.092z"/>
		<path fill="#FFFFFF" d="M113.016,5.938h5.106v1.018h-4.01v2.926h3.892V10.9h-3.892v3.867h4.01v1.018h-5.106V5.938z"/>
		<path fill="#FFFFFF" d="M124.456,7.857c-0.2-0.339-0.429-0.603-0.686-0.79c-0.257-0.187-0.595-0.281-1.012-0.281
			c-0.218,0-0.425,0.037-0.62,0.111c-0.196,0.074-0.37,0.179-0.523,0.314c-0.152,0.135-0.272,0.297-0.359,0.484
			c-0.087,0.187-0.131,0.393-0.131,0.62c0,0.209,0.05,0.394,0.15,0.556c0.1,0.16,0.224,0.302,0.372,0.424
			c0.148,0.122,0.314,0.226,0.496,0.314s0.357,0.17,0.522,0.248l0.653,0.288c0.322,0.139,0.624,0.289,0.908,0.451
			c0.283,0.16,0.533,0.348,0.751,0.561c0.217,0.214,0.39,0.461,0.516,0.744c0.126,0.284,0.189,0.621,0.189,1.013
			c0,0.435-0.081,0.838-0.242,1.207c-0.161,0.371-0.383,0.691-0.666,0.96c-0.283,0.27-0.612,0.484-0.986,0.641
			c-0.374,0.156-0.775,0.235-1.202,0.235c-0.392,0-0.757-0.062-1.097-0.183c-0.34-0.122-0.642-0.294-0.908-0.517
			c-0.266-0.222-0.49-0.489-0.673-0.802c-0.183-0.314-0.314-0.662-0.392-1.045l1.071-0.301c0.035,0.253,0.109,0.49,0.222,0.712
			c0.113,0.222,0.255,0.416,0.425,0.58c0.17,0.166,0.368,0.297,0.594,0.392c0.226,0.096,0.47,0.143,0.731,0.143
			c0.261,0,0.514-0.048,0.758-0.143c0.243-0.096,0.459-0.229,0.646-0.399c0.187-0.169,0.337-0.372,0.451-0.607
			c0.113-0.235,0.17-0.492,0.17-0.771c0-0.287-0.053-0.531-0.157-0.731c-0.105-0.201-0.242-0.374-0.412-0.523
			c-0.17-0.148-0.363-0.276-0.581-0.385c-0.218-0.109-0.44-0.216-0.666-0.32l-0.601-0.261c-0.287-0.131-0.562-0.27-0.823-0.418
			c-0.261-0.148-0.49-0.318-0.686-0.509c-0.196-0.192-0.35-0.417-0.463-0.673c-0.113-0.257-0.17-0.564-0.17-0.921
			c0-0.383,0.074-0.729,0.222-1.037c0.148-0.309,0.351-0.573,0.607-0.791s0.551-0.385,0.882-0.503
			c0.331-0.118,0.679-0.176,1.045-0.176c0.548,0,1.045,0.133,1.489,0.399c0.444,0.266,0.797,0.642,1.058,1.13L124.456,7.857z"/>
	</g>
	<rect x="69.337" y="9.947" fill="#0081b2" width="1.828" height="1.828"/>
	<rect x="72.992" y="9.947" fill="#0081b2" width="1.828" height="1.828"/>
	<rect x="76.646" y="9.947" fill="#0081b2" width="1.828" height="1.828"/>
	<path fill="#FFFFFF" d="M78.475,11.776"/>
</g>
</svg>
