<?xml version="1.0" encoding="utf-8"?>
<!-- Generator: Adobe Illustrator 17.0.0, SVG Export Plug-In . SVG Version: 6.00 Build 0)  -->
<!DOCTYPE svg PUBLIC "-//W3C//DTD SVG 1.1//EN" "http://www.w3.org/Graphics/SVG/1.1/DTD/svg11.dtd">
<svg version="1.1" id="Capa_1" xmlns="http://www.w3.org/2000/svg" xmlns:xlink="http://www.w3.org/1999/xlink" x="0px" y="0px"
	 width="34.016px" height="30px" viewBox="-2.008 0 34.016 30" enable-background="new -2.008 0 34.016 30" xml:space="preserve">
<g>
	<path fill="#0081B2" d="M23.554,23.777c0-0.563-0.453-0.937-1.134-0.937H0.382c-0.681,0-1.134,0.374-1.134,0.937v1.868
		c0,0.563,0.453,0.937,1.134,0.937H22.42c0.681,0,1.134-0.374,1.134-0.937C23.554,25.645,23.554,23.777,23.554,23.777z"/>
</g>
<g>
	<path fill="#0081B2" d="M23.704,13.773c0-0.563-0.453-0.937-1.134-0.937H0.531c-0.681,0-1.134,0.374-1.134,0.937v1.868
		c0,0.563,0.453,0.937,1.134,0.937H22.57c0.681,0,1.134-0.374,1.134-0.937C23.704,15.641,23.704,13.773,23.704,13.773z"/>
</g>
<g>
	<path fill="#0081B2" d="M23.704,3.613c0-0.563-0.453-0.937-1.134-0.937H0.531c-0.681,0-1.134,0.374-1.134,0.937v1.868
		c0,0.563,0.453,0.937,1.134,0.937H22.57c0.681,0,1.134-0.374,1.134-0.937C23.704,5.481,23.704,3.613,23.704,3.613z"/>
</g>
<g>
	<path fill="#0081B2" d="M30.812,23.777c0-0.563-0.453-0.937-1.134-0.937h-2.613c-0.681,0-1.134,0.374-1.134,0.937v1.868
		c0,0.563,0.453,0.937,1.134,0.937h2.613c0.681,0,1.134-0.374,1.134-0.937C30.812,25.645,30.812,23.777,30.812,23.777z"/>
</g>
<g>
	<path fill="#0081B2" d="M30.962,13.773c0-0.563-0.453-0.937-1.134-0.937h-2.613c-0.681,0-1.134,0.374-1.134,0.937v1.868
		c0,0.563,0.453,0.937,1.134,0.937h2.613c0.681,0,1.134-0.374,1.134-0.937C30.962,15.641,30.962,13.773,30.962,13.773z"/>
</g>
<g>
	<path fill="#0081B2" d="M30.962,3.613c0-0.563-0.453-0.937-1.134-0.937h-2.613c-0.681,0-1.134,0.374-1.134,0.937v1.868
		c0,0.563,0.453,0.937,1.134,0.937h2.613c0.681,0,1.134-0.374,1.134-0.937C30.962,5.481,30.962,3.613,30.962,3.613z"/>
</g>
</svg>
