<?xml version="1.0" encoding="utf-8"?>
<!-- Generator: Adobe Illustrator 17.0.0, SVG Export Plug-In . SVG Version: 6.00 Build 0)  -->
<!DOCTYPE svg PUBLIC "-//W3C//DTD SVG 1.1//EN" "http://www.w3.org/Graphics/SVG/1.1/DTD/svg11.dtd">
<svg version="1.1" id="Capa_1" xmlns="http://www.w3.org/2000/svg" xmlns:xlink="http://www.w3.org/1999/xlink" x="0px" y="0px"
	 width="23.013px" height="30px" viewBox="-2.008 0 23.013 30" enable-background="new -2.008 0 23.013 30" xml:space="preserve">
<g>
	<path id="XMLID_22_" fill-rule="evenodd" clip-rule="evenodd" fill="#6B6B6F" d="M5.593,13.114
		c-0.365,0.003-0.694-0.074-0.982-0.233c-0.289-0.159-0.463-0.332-0.522-0.518c-0.037-0.092-0.063-0.179-0.078-0.258
		c-0.015-0.079-0.023-0.176-0.024-0.291c-0.002-0.179,0.02-0.343,0.065-0.491c0.046-0.148,0.1-0.276,0.163-0.384
		c0.063-0.108,0.12-0.19,0.166-0.244c0.047-0.054,0.08-0.089,0.101-0.104l-0.769-0.456l2.51-0.077l1.163,2.187l-0.727-0.413
		c-0.022,0.022-0.055,0.056-0.101,0.104c-0.046,0.047-0.1,0.105-0.161,0.174c-0.06,0.069-0.118,0.138-0.174,0.206
		c-0.057,0.069-0.096,0.125-0.117,0.168c-0.05,0.087-0.074,0.166-0.073,0.237c0.001,0.115,0.043,0.203,0.126,0.263
		c0.083,0.06,0.15,0.101,0.201,0.122L5.593,13.114z M12.838,13.439c0.244-0.009,0.469-0.064,0.672-0.163
		c0.204-0.099,0.377-0.212,0.52-0.339c0.143-0.127,0.249-0.236,0.32-0.327c0.071-0.09,0.121-0.157,0.149-0.2
		c-0.05,0.151-0.11,0.296-0.18,0.432c-0.07,0.138-0.162,0.303-0.276,0.499c-0.07,0.13-0.119,0.22-0.147,0.271
		c-0.057,0.123-0.117,0.25-0.18,0.38c-0.155,0.333-0.282,0.597-0.38,0.792c-0.1,0.196-0.208,0.384-0.33,0.565
		c-0.12,0.181-0.244,0.326-0.373,0.436c-0.128,0.11-0.261,0.165-0.398,0.166c-0.094,0.001-0.52,0.005-1.282,0.012l0.008,0.884
		l-1.334-2.125l1.316-2.107l-0.003,0.841C12.185,13.446,12.816,13.439,12.838,13.439z M7.941,6.101
		c0.245-0.006,0.712-0.012,1.401-0.019c0.697-0.006,1.209,0.008,1.536,0.045c0.327,0.037,0.536,0.13,0.623,0.28
		c0.015,0.029,0.053,0.099,0.116,0.21c0.061,0.111,0.135,0.234,0.218,0.37c0.084,0.136,0.152,0.246,0.203,0.332
		c0.051,0.086,0.088,0.15,0.11,0.193l0.761-0.449L11.863,9.41L9.264,9.197L9.982,8.77l-0.92-1.554
		c-0.139-0.243-0.298-0.441-0.48-0.594C8.401,6.47,8.223,6.361,8.045,6.294C7.869,6.228,7.722,6.186,7.603,6.169
		c-0.12-0.017-0.207-0.025-0.264-0.025C7.496,6.122,7.697,6.106,7.941,6.101z M4.569,13.11c-0.274-0.123-0.459-0.278-0.553-0.465
		c0.029,0.05,0.075,0.13,0.136,0.24c0.063,0.111,0.147,0.259,0.253,0.444c0.106,0.185,0.217,0.381,0.335,0.588
		c0.117,0.206,0.2,0.36,0.252,0.46c0.029,0.057,0.048,0.097,0.055,0.119c0.088,0.185,0.17,0.352,0.247,0.499
		c0.077,0.146,0.164,0.298,0.263,0.455c0.099,0.157,0.2,0.286,0.305,0.385c0.105,0.1,0.204,0.149,0.298,0.148l2.812-0.027
		l-0.026-2.698c-1.659,0.016-2.801,0.026-3.426,0.032C5.16,13.294,4.843,13.234,4.569,13.11z M12.559,13.018
		c-0.128-0.2-0.402-0.623-0.82-1.27c-0.419-0.646-0.665-1.026-0.738-1.14l2.208-1.336c0.022,0.036,0.073,0.129,0.153,0.279
		c0.08,0.151,0.178,0.333,0.296,0.547c0.241,0.45,0.42,0.784,0.536,1.003c0.117,0.217,0.202,0.37,0.253,0.455
		c0.036,0.065,0.056,0.147,0.056,0.248c0.002,0.136-0.03,0.291-0.093,0.464c-0.022,0.043-0.069,0.112-0.144,0.206
		c-0.074,0.094-0.181,0.205-0.321,0.331c-0.138,0.127-0.311,0.242-0.519,0.345c-0.207,0.102-0.429,0.158-0.667,0.168
		C12.754,13.317,12.687,13.217,12.559,13.018z M7.386,10.085L5.198,8.873c0.022-0.036,0.12-0.199,0.298-0.489
		c0.035-0.058,0.126-0.206,0.27-0.446C5.911,7.699,6.04,7.487,6.153,7.302C6.267,7.117,6.359,6.963,6.43,6.84
		c0.07-0.123,0.12-0.207,0.147-0.25c0.05-0.087,0.124-0.152,0.22-0.197c0.096-0.044,0.237-0.085,0.423-0.123
		C7.293,6.27,7.39,6.278,7.513,6.295C7.635,6.312,7.784,6.354,7.961,6.42c0.177,0.067,0.354,0.173,0.53,0.319
		C8.67,6.886,8.824,7.077,8.955,7.314l0.033,0.053c0.037,0.057,0.069,0.111,0.098,0.161L7.386,10.085z"/>
	<path fill="#6B6B6F" d="M9.498,28.317c1.071,0,10.007-11.1,10.007-16.627c0-5.527-4.481-10.007-10.007-10.007
		c-5.527,0-10.007,4.48-10.007,10.007C-0.509,17.217,8.466,28.317,9.498,28.317L9.498,28.317z M0.705,11.339
		c0-4.856,3.936-8.793,8.793-8.793c4.856,0,8.793,3.937,8.793,8.793c0,4.856-3.937,8.794-8.793,8.794
		C4.641,20.133,0.705,16.196,0.705,11.339L0.705,11.339z M3.034,11.34"/>
</g>
</svg>
