<?xml version="1.0" encoding="utf-8"?>
<!-- Generator: Adobe Illustrator 17.0.0, SVG Export Plug-In . SVG Version: 6.00 Build 0)  -->
<!DOCTYPE svg PUBLIC "-//W3C//DTD SVG 1.1//EN" "http://www.w3.org/Graphics/SVG/1.1/DTD/svg11.dtd">
<svg version="1.1" xmlns="http://www.w3.org/2000/svg" xmlns:xlink="http://www.w3.org/1999/xlink" x="0px" y="0px" width="163px"
	 height="38px" viewBox="0 0 163 38" enable-background="new 0 0 163 38" xml:space="preserve">
<g id="plantilla">
</g>
<g id="Fondos">
</g>
<g id="Contenidos">
	<rect fill="none" width="163" height="38"/>
	<g>
		<g opacity="0.4">
			<g>
				<path fill="#FFFFFF" d="M115.025,31.356c0,0.88-0.72,1.601-1.601,1.601H103.18c-0.881,0-1.601-0.72-1.601-1.601V16.016
					c0-0.88,0.72-1.601,1.601-1.601h10.244c0.881,0,1.601,0.72,1.601,1.601V31.356z"/>
			</g>
			<path fill="#FFFFFF" d="M10.417,14.579c-1.225,0.667-1.935,1.521-2.133,2.565H3.705v-2.565H10.417z M13.125,14.579h2.921v2.565
				h-3.564c-0.865,0.115-1.32,0.526-1.372,1.236v13.899h-2.47V18.565c0.01-1.702,0.83-2.938,2.459-3.7
				C11.534,14.675,12.213,14.579,13.125,14.579z"/>
			<path fill="#FFFFFF" d="M22.463,14.579h8.399v2.54h-8.334c-0.981,0.096-1.472,0.577-1.472,1.458v5.237
				c-0.92,0.351-1.768,1.015-2.546,1.986v-7.402c0-1.504,0.774-2.666,2.31-3.498C21.345,14.686,21.891,14.579,22.463,14.579z
				 M30.849,19.64v2.736l-9.504,4.704c-0.214,0.275-0.324,0.569-0.324,0.893v0.27c0,0.709,0.281,1.17,0.845,1.393
				c0.106,0.057,0.531,0.082,1.28,0.071h7.722v2.587h-8.204c-1.218-0.009-2.18-0.353-2.889-1.028
				c-0.839-0.797-1.264-1.728-1.264-2.787v-0.695c0-1.545,0.935-2.725,2.794-3.537L30.849,19.64z"/>
			<path fill="#FFFFFF" d="M37.214,14.579h4.527c1.783,0,3.031,0.932,3.746,2.802c0.128,0.435,0.18,0.926,0.18,1.457v0.652
				c0,0.042-0.041,0.094-0.132,0.136h-2.295c-0.04,0-0.084-0.042-0.14-0.136v-1.217c-0.146-0.779-0.602-1.159-1.359-1.159h-4.61
				c-0.726,0-1.145,0.461-1.272,1.388v9.868c0,0.747,0.388,1.196,1.173,1.337h4.945c0.755-0.184,1.123-0.556,1.123-1.106v-1.409
				h2.567v0.841c0,2.113-0.99,3.484-2.987,4.112c-0.366,0.098-0.785,0.149-1.256,0.149h-3.978c-1.965,0-3.288-0.968-3.972-2.903
				c-0.091-0.372-0.137-0.709-0.137-1.021v-9.917c0-1.691,0.908-2.924,2.719-3.69C36.475,14.642,36.862,14.579,37.214,14.579z"/>
			<path fill="#FFFFFF" d="M48.135,14.579h2.572v9.158c-1.132,0.434-1.989,1.091-2.572,1.975V14.579z M60.479,19.625v2.851
				l-9.436,4.584c-0.224,0.234-0.335,0.469-0.335,0.702v4.54h-2.469c-0.072,0-0.103-0.032-0.103-0.099V28.18
				c0-1.778,0.769-3.01,2.298-3.689L60.479,19.625z M57.948,14.579h2.53v4.392l-2.53,1.26V14.579z M60.479,23.084v9.218h-2.53V24.3
				L60.479,23.084z"/>
			<path fill="#FFFFFF" d="M68.264,14.605l7.807,4.059c1.052,0.766,1.576,1.762,1.576,2.99v10.625h-2.365V21.834
				c-0.018-0.643-0.476-1.138-1.352-1.491l-5.667-2.933V14.605z M68.264,18.031l2.469,1.21v13.037h-2.469V18.031z M84.28,14.593
				v2.862l-6.239,3.22c-0.096-0.773-0.514-1.492-1.276-2.15L84.28,14.593z M84.297,18.058v14.221h-2.445l-0.007-12.986
				L84.297,18.058z"/>
			<path fill="#FFFFFF" d="M86.764,14.579h7.816c1.556,0,2.662,0.361,3.321,1.075c0.806,0.8,1.207,1.7,1.207,2.715v2.651
				c0,1.632-1.326,2.952-3.985,3.965l-8.359,3.985v-2.713c5.736-2.784,8.876-4.322,9.405-4.632c0.284-0.236,0.42-0.546,0.42-0.928
				v-2.145c0-0.581-0.247-1.004-0.749-1.269c-0.149-0.091-0.353-0.139-0.61-0.139h-5.888v7.247l-2.578,1.163V14.579z M89.343,28.401
				v3.877h-2.578v-2.617L89.343,28.401z"/>
			<path fill="#FFFFFF" d="M117.394,14.579h2.518v13.777c0,0.632,0.307,1.065,0.93,1.306l0.286,0.044h8.597v2.572h-8.178
				c-2.649-0.233-4.027-1.491-4.154-3.78V14.579z"/>
			<path fill="#FFFFFF" d="M136.736,14.593h3.29c1.916,0,3.204,0.598,3.87,1.808c0.438,0.58,0.654,1.38,0.654,2.395v0.894h-2.569
				v-1.312c-0.178-0.812-0.585-1.223-1.217-1.223h-4.684c-0.661,0-1.095,0.344-1.305,1.028c-0.026,0.16-0.04,0.317-0.04,0.469v1.594
				l-2.525-1.178v-0.649c0-1.617,0.854-2.812,2.565-3.594C135.215,14.667,135.865,14.593,136.736,14.593z M132.209,19.691
				l9.921,4.761c0.858,0.483,1.474,0.988,1.843,1.499c0.368,0.515,0.55,1.274,0.55,2.265c0,1.873-0.887,3.161-2.668,3.876
				c-0.343,0.124-0.71,0.186-1.108,0.186h-4.761c-1.615,0-2.811-0.871-3.586-2.617c-0.13-0.418-0.19-0.808-0.19-1.164v-1.256h2.517
				v1.026c0,0.722,0.327,1.204,0.985,1.438c0.165,0.037,1.765,0.054,4.807,0.054c0.642,0,1.082-0.262,1.337-0.791
				c0.07-0.208,0.103-0.343,0.103-0.421v-0.836c-0.115-0.431-0.955-1.003-2.521-1.727l-7.227-3.53V19.691z"/>
			<path fill="#FFFFFF" d="M150.969,14.579h8.389v2.54h-8.328c-0.975,0.096-1.468,0.577-1.468,1.458v5.237
				c-0.921,0.351-1.771,1.015-2.546,1.986v-7.402c0-1.504,0.774-2.666,2.312-3.498C149.846,14.686,150.392,14.579,150.969,14.579z
				 M159.348,19.64v2.736l-9.501,4.704c-0.214,0.275-0.318,0.569-0.318,0.893v0.27c0,0.709,0.278,1.17,0.835,1.393
				c0.109,0.057,0.534,0.082,1.285,0.071h7.73v2.587h-8.216c-1.213-0.009-2.177-0.353-2.884-1.028
				c-0.838-0.797-1.261-1.728-1.261-2.787v-0.695c0-1.545,0.932-2.725,2.791-3.537L159.348,19.64z"/>
			<polygon fill="#FFFFFF" points="63.302,21.491 63.302,32.278 65.77,32.278 65.77,20.299 			"/>
			<path fill="#FFFFFF" d="M63.27,20.95v-6.415h2.532v5.19L63.27,20.95z"/>
		</g>
		<polygon fill="#0c0c0c" points="109.277,16.91 107.337,16.91 107.337,20.888 109.277,21.827 		"/>
		<path fill="#0c0c0c" d="M111.058,16.893l0.013,10.614c0,0.097-0.019,0.196-0.038,0.284c-0.158,0.503-0.506,0.758-1.042,0.758
			h-3.414c-0.081,0-0.188-0.015-0.324-0.038c-0.497-0.182-0.743-0.553-0.743-1.109V16.893h-1.945v10.685
			c0,0.244,0.049,0.547,0.145,0.932c0.632,1.31,1.539,1.969,2.724,1.969h3.698c0.299,0,0.584-0.043,0.863-0.14
			c1.361-0.512,2.043-1.55,2.043-3.117v-10.33H111.058z"/>
	</g>
</g>
</svg>
