<?xml version="1.0" encoding="utf-8"?>
<!-- Generator: Adobe Illustrator 17.0.0, SVG Export Plug-In . SVG Version: 6.00 Build 0)  -->
<!DOCTYPE svg PUBLIC "-//W3C//DTD SVG 1.1//EN" "http://www.w3.org/Graphics/SVG/1.1/DTD/svg11.dtd">
<svg version="1.1" id="Capa_1" xmlns="http://www.w3.org/2000/svg" xmlns:xlink="http://www.w3.org/1999/xlink" x="0px" y="0px"
	 width="13.774px" height="12.935px" viewBox="-2.008 0 13.774 12.935" enable-background="new -2.008 0 13.774 12.935"
	 xml:space="preserve">
<path id="XMLID_22_" fill-rule="evenodd" clip-rule="evenodd" fill="#0081B2" d="M1.345,8.336C0.98,8.339,0.652,8.262,0.363,8.103
	C0.074,7.943-0.1,7.771-0.159,7.585c-0.037-0.092-0.063-0.179-0.078-0.258C-0.252,7.248-0.26,7.151-0.261,7.036
	c-0.002-0.179,0.02-0.343,0.065-0.491c0.046-0.148,0.1-0.276,0.163-0.384c0.063-0.108,0.12-0.19,0.166-0.244
	c0.047-0.054,0.08-0.089,0.101-0.104l-0.769-0.456l2.51-0.077l1.163,2.187L2.411,7.054C2.39,7.076,2.356,7.11,2.31,7.158
	c-0.046,0.047-0.1,0.105-0.161,0.174c-0.06,0.069-0.118,0.138-0.174,0.206C1.917,7.607,1.879,7.663,1.857,7.706
	c-0.05,0.087-0.074,0.166-0.073,0.237C1.785,8.059,1.827,8.146,1.91,8.207c0.083,0.06,0.15,0.101,0.201,0.122L1.345,8.336z
	 M8.59,8.661c0.244-0.009,0.469-0.064,0.672-0.163c0.204-0.099,0.377-0.212,0.52-0.339c0.143-0.127,0.249-0.236,0.32-0.327
	c0.071-0.09,0.121-0.157,0.149-0.2c-0.05,0.151-0.11,0.296-0.18,0.432c-0.07,0.138-0.162,0.303-0.276,0.499
	c-0.07,0.13-0.119,0.22-0.147,0.271c-0.057,0.123-0.117,0.25-0.18,0.38c-0.155,0.333-0.282,0.597-0.38,0.792
	c-0.1,0.196-0.208,0.384-0.33,0.565c-0.12,0.181-0.244,0.326-0.373,0.436c-0.128,0.11-0.261,0.165-0.398,0.166
	c-0.094,0.001-0.52,0.005-1.282,0.012l0.008,0.884L5.381,9.945l1.316-2.107L6.694,8.679C7.937,8.667,8.569,8.661,8.59,8.661z
	 M3.694,1.323c0.245-0.006,0.712-0.012,1.401-0.019c0.697-0.006,1.209,0.008,1.536,0.045c0.327,0.037,0.536,0.13,0.623,0.28
	c0.015,0.029,0.053,0.099,0.116,0.21c0.061,0.111,0.135,0.234,0.218,0.37C7.671,2.344,7.739,2.454,7.79,2.54
	C7.841,2.626,7.877,2.69,7.9,2.732L8.66,2.284L7.616,4.632L5.017,4.419l0.718-0.427l-0.92-1.554
	c-0.139-0.243-0.298-0.441-0.48-0.594c-0.181-0.153-0.36-0.262-0.537-0.329C3.622,1.449,3.474,1.408,3.356,1.39
	c-0.12-0.017-0.207-0.025-0.264-0.025C3.249,1.343,3.45,1.328,3.694,1.323z M0.322,8.332C0.048,8.209-0.137,8.053-0.232,7.867
	c0.029,0.05,0.075,0.13,0.136,0.24c0.063,0.111,0.147,0.259,0.253,0.444c0.106,0.185,0.217,0.381,0.335,0.588
	c0.117,0.206,0.2,0.36,0.252,0.46c0.029,0.057,0.048,0.097,0.055,0.119c0.088,0.185,0.17,0.352,0.247,0.499
	c0.077,0.146,0.164,0.298,0.263,0.455c0.099,0.157,0.2,0.286,0.305,0.385c0.105,0.1,0.204,0.149,0.298,0.148l2.812-0.027L4.698,8.48
	C3.039,8.496,1.897,8.506,1.272,8.512C0.912,8.516,0.596,8.456,0.322,8.332z M8.312,8.239c-0.128-0.2-0.402-0.623-0.82-1.27
	c-0.419-0.646-0.665-1.026-0.738-1.14l2.208-1.336C8.983,4.53,9.034,4.623,9.115,4.772c0.08,0.151,0.178,0.333,0.296,0.547
	c0.241,0.45,0.42,0.784,0.536,1.003c0.117,0.217,0.202,0.37,0.253,0.455c0.036,0.065,0.056,0.147,0.056,0.248
	c0.002,0.136-0.03,0.291-0.093,0.464c-0.022,0.043-0.069,0.112-0.144,0.206C9.945,7.79,9.838,7.9,9.699,8.026
	C9.561,8.154,9.388,8.268,9.18,8.371C8.973,8.473,8.751,8.53,8.513,8.539C8.506,8.539,8.439,8.439,8.312,8.239z M3.139,5.307
	L0.95,4.095c0.022-0.036,0.12-0.199,0.298-0.489C1.283,3.547,1.373,3.4,1.518,3.16c0.145-0.239,0.274-0.451,0.388-0.636
	c0.113-0.185,0.205-0.339,0.276-0.462c0.07-0.123,0.12-0.207,0.147-0.25C2.38,1.725,2.453,1.66,2.55,1.615
	C2.646,1.571,2.787,1.53,2.973,1.492C3.046,1.492,3.142,1.5,3.265,1.517c0.122,0.017,0.272,0.059,0.449,0.125
	c0.177,0.067,0.354,0.173,0.53,0.319c0.178,0.147,0.333,0.338,0.464,0.575l0.033,0.053C4.777,2.647,4.809,2.7,4.839,2.75
	L3.139,5.307z"/>
</svg>
