<?xml version="1.0" encoding="utf-8"?>
<!-- Generator: Adobe Illustrator 17.0.0, SVG Export Plug-In . SVG Version: 6.00 Build 0)  -->
<!DOCTYPE svg PUBLIC "-//W3C//DTD SVG 1.1//EN" "http://www.w3.org/Graphics/SVG/1.1/DTD/svg11.dtd">
<svg version="1.1" xmlns="http://www.w3.org/2000/svg" xmlns:xlink="http://www.w3.org/1999/xlink" x="0px" y="0px" width="120px"
	 height="38px" viewBox="0 0 120 38" enable-background="new 0 0 120 38" xml:space="preserve">
<g id="plantilla">
</g>
<g id="Fondos">
</g>
<g id="Contenidos">
	<g opacity="0.4">
		<g>
			<path fill="#FFFFFF" d="M115.335,11.361c0,1.667-1.278,2.948-2.938,2.948c-1.661,0-2.975-1.282-2.975-2.948
				c0-1.63,1.314-2.912,2.993-2.912C114.057,8.449,115.335,9.731,115.335,11.361z M110.061,11.361c0,1.355,1.004,2.417,2.354,2.417
				c1.296,0.019,2.281-1.062,2.281-2.399c0-1.337-0.986-2.417-2.318-2.417C111.065,8.962,110.061,10.042,110.061,11.361z
				 M111.868,12.972h-0.566V9.914c0.31-0.055,0.639-0.091,1.059-0.091c0.51,0,0.766,0.091,0.949,0.237
				c0.182,0.128,0.309,0.367,0.309,0.66c0,0.365-0.274,0.604-0.583,0.714v0.036c0.255,0.11,0.402,0.348,0.492,0.75
				c0.091,0.458,0.165,0.641,0.237,0.751h-0.584c-0.091-0.11-0.164-0.384-0.255-0.787c-0.072-0.348-0.273-0.495-0.692-0.495h-0.365
				V12.972z M111.868,11.251h0.383c0.401,0,0.785-0.127,0.785-0.476c0-0.292-0.201-0.512-0.731-0.512
				c-0.219,0-0.346,0.018-0.437,0.036V11.251z"/>
		</g>
		<path fill="#FFFFFF" d="M5.914,14.299c0.404-1.26,1.196-0.898,2.375,1.085c0.38,0.636,0.812,1.446,1.293,2.433
			c0.535,1.128,1.052,2.093,1.554,2.892c0.502,0.8,0.83,1.2,0.983,1.2c0.174,0,0.413-0.304,0.713-0.913
			c0.301-0.607,0.614-1.405,0.942-2.39c0.731-2.323,1.342-3.429,1.834-3.32c0.229,0.044,0.425,0.372,0.589,0.986
			c0.164,0.668,0.02,1.895-0.434,3.681c-0.453,1.786-1.051,3.632-1.794,5.539c-0.741,1.906-1.554,3.7-2.439,5.382
			c-0.883,1.681-1.638,2.769-2.259,3.262c-0.897,0.702-1.665,0.981-2.31,0.838c-0.479-0.098-0.716-0.411-0.702-0.936
			c0.02-0.428,0.216-0.909,0.589-1.446c0.599-0.855,1.482-2.367,2.651-4.536c1.168-2.169,1.754-3.385,1.754-3.648
			c0-0.131-0.127-0.292-0.378-0.485c-0.251-0.191-0.555-0.364-0.916-0.517c-0.71-0.285-1.433-1.01-2.17-2.178
			c-0.736-1.166-1.293-2.424-1.671-3.771C5.741,16.107,5.673,15.056,5.914,14.299z M23.619,18.643
			c-0.616,0.071-1.139,0.079-1.564,0.025c-2.086-0.274-3.641,0.756-4.667,3.089c-0.502,1.161-0.838,2.317-1.008,3.467
			c-0.168,1.151-0.157,2.199,0.033,3.148c0.192,0.947,0.515,1.788,0.975,2.522c0.458,0.734,1.07,1.306,1.834,1.718
			c0.764,0.41,1.62,0.616,2.572,0.616c0.882-0.011,2.076-0.442,3.578-1.291c1.5-0.849,2.649-1.744,3.447-2.687
			c0.917-1.096,1.619-2.322,2.104-3.681c0.487-1.359,0.69-2.638,0.614-3.836c-0.076-1.201-0.437-2.129-1.081-2.786
			c-0.546-0.548-1.325-0.884-2.342-1.011c-1.014-0.125-2.003-0.003-2.963,0.37C24.747,18.459,24.236,18.572,23.619,18.643z
			 M26.984,20.959c0.088,0.543,0.044,1.126-0.131,1.751c-0.174,0.624-0.447,1.266-0.818,1.923c-0.371,0.657-0.793,1.246-1.262,1.767
			c-0.469,0.519-0.984,0.928-1.547,1.224c-0.562,0.296-1.095,0.411-1.597,0.345c-0.316-0.044-0.54-0.131-0.67-0.263
			c-0.131-0.131-0.23-0.36-0.295-0.682c-0.065-0.324-0.114-0.874-0.148-1.652c-0.044-0.668-0.032-1.331,0.034-1.988
			c0.066-0.657,0.162-1.101,0.293-1.331c0.262-0.493,0.642-0.783,1.138-0.871c0.498-0.087,0.936,0.06,1.319,0.444
			c0.304,0.307,0.616,0.365,0.933,0.173c0.316-0.192,0.473-0.54,0.473-1.044c0-0.602,0.145-0.993,0.435-1.175
			c0.289-0.18,0.663-0.123,1.122,0.173C26.657,20.014,26.897,20.418,26.984,20.959z M46.559,21.078
			c-0.786,2.696-1.495,4.777-2.129,6.245c-0.633,1.468-1.262,2.476-1.883,3.023c-0.622,0.548-1.309,0.702-2.064,0.46
			c-0.62-0.197-1.268-0.871-1.94-2.021c-0.671-1.15-1.256-2.58-1.752-4.289c-0.498-1.709-0.828-3.434-0.99-5.177
			c-0.155-1.622-0.345-2.629-0.575-3.024c-0.229-0.383-0.589-0.372-1.08,0.033c-0.262,0.219-0.447,0.915-0.557,2.087
			c-0.109,1.172-0.131,2.512-0.065,4.018c0.065,1.507,0.212,2.807,0.443,3.903c0.566,2.696,1.547,4.861,2.938,6.499
			c1.393,1.638,2.945,2.457,4.661,2.457c0.872,0,1.777-0.328,2.709-0.986c0.934-0.657,1.797-1.564,2.587-2.72
			c0.792-1.156,1.423-2.434,1.892-3.837c0.404-1.205,0.706-3.141,0.909-5.809c0.201-2.668,0.187-4.588-0.041-5.761
			c-0.144-0.789-0.351-1.287-0.623-1.496c-0.285-0.219-0.514-0.065-0.687,0.461C48.19,15.518,47.607,17.496,46.559,21.078z
			 M56.374,5.974c-0.094,0.866-0.139,2.312-0.139,4.339v5.226l-1.917,0.756c-1.058,0.394-1.807,0.871-2.244,1.43
			c-0.437,0.559-0.55,1.167-0.343,1.824c0.109,0.318,0.332,0.543,0.671,0.674c0.338,0.131,0.945,0.224,1.818,0.279l2.242,0.131
			l0.345,3.648c0.294,3.057,0.623,5.292,0.982,6.705c0.361,1.414,0.786,2.121,1.278,2.121c0.568,0,1.019-0.296,1.36-0.888
			c0.336-0.592,0.583-1.54,0.736-2.843c0.153-1.303,0.229-3.056,0.229-5.259v-5.982l3.865-3.714c3.318-3.188,4.537-4.782,3.65-4.782
			c-0.076,0-0.336,0.164-0.778,0.493c-0.442,0.329-0.941,0.728-1.498,1.2c-1.201,0.997-2.32,1.767-3.358,2.308
			c-1.036,0.543-1.681,0.688-1.93,0.436c-0.089-0.088-0.214-0.608-0.378-1.561c-0.164-0.954-0.317-2.054-0.458-3.304
			c-0.24-2.213-0.538-3.771-0.893-4.676c-0.356-0.903-0.849-1.355-1.481-1.355c-0.155,0-0.352,0.093-0.59,0.279
			c-0.242,0.186-0.454,0.411-0.639,0.674C56.644,4.496,56.466,5.109,56.374,5.974z M69.063,5.974
			c-0.094,0.866-0.14,2.312-0.14,4.339v5.226l-1.916,0.756c-1.059,0.394-1.808,0.871-2.244,1.43
			c-0.437,0.559-0.551,1.167-0.344,1.824c0.11,0.318,0.332,0.543,0.671,0.674c0.339,0.131,0.945,0.224,1.819,0.279l2.243,0.131
			l0.344,3.648c0.294,3.057,0.622,5.292,0.983,6.705c0.36,1.414,0.786,2.121,1.277,2.121c0.567,0,1.019-0.296,1.36-0.888
			c0.337-0.592,0.583-1.54,0.736-2.843c0.152-1.303,0.229-3.056,0.229-5.259v-5.982l3.864-3.714
			c3.318-3.188,4.537-4.782,3.651-4.782c-0.076,0-0.336,0.164-0.777,0.493c-0.443,0.329-0.941,0.728-1.499,1.2
			c-1.201,0.997-2.321,1.767-3.358,2.308c-1.037,0.543-1.681,0.688-1.93,0.436c-0.089-0.088-0.214-0.608-0.379-1.561
			c-0.162-0.954-0.316-2.054-0.457-3.304c-0.24-2.213-0.538-3.771-0.892-4.676c-0.356-0.903-0.851-1.355-1.482-1.355
			c-0.155,0-0.351,0.093-0.589,0.279c-0.242,0.186-0.454,0.411-0.64,0.674C69.333,4.496,69.155,5.109,69.063,5.974z M81.281,20.487
			c-1.223,1.161-2.212,2.399-2.963,3.714c-0.755,1.315-1.13,2.476-1.13,3.484c0,1.096,0.309,2.076,0.925,2.942
			c0.618,0.865,1.509,1.572,2.677,2.119c0.7,0.318,1.292,0.529,1.777,0.632c0.487,0.104,1.117,0.156,1.892,0.156
			c0.775,0,2.144-0.06,4.11-0.181c3.768-0.219,5.749-0.51,5.945-0.871c0.131-0.263-0.792-0.498-2.766-0.706
			c-1.311-0.131-3.11-0.583-5.398-1.356c-2.287-0.772-3.742-1.421-4.363-1.947c-0.384-0.318-0.589-0.592-0.623-0.822
			c-0.032-0.23,0.107-0.389,0.417-0.477c0.313-0.088,0.761-0.093,1.352-0.017c0.644,0.088,1.255,0.066,1.834-0.066
			c0.579-0.131,1.31-0.416,2.196-0.855c1.407-0.69,2.51-1.572,3.307-2.646c0.917-1.238,1.288-2.492,1.113-3.763
			c-0.162-1.095-0.709-1.884-1.637-2.367c-1.288-0.668-2.919-0.542-4.896,0.378C83.76,18.443,82.504,19.326,81.281,20.487z
			 M88.257,21.473c-0.262,0.328-0.6,0.644-1.015,0.945c-0.415,0.301-0.871,0.598-1.368,0.888c-0.495,0.29-0.976,0.515-1.44,0.673
			c-0.464,0.159-0.885,0.263-1.261,0.313c-0.377,0.048-0.647-0.014-0.811-0.189c-0.066-0.066,0.077-0.309,0.425-0.731
			c0.35-0.422,0.809-0.902,1.376-1.439c0.731-0.668,1.354-1.156,1.867-1.462c0.513-0.307,0.982-0.46,1.408-0.46
			c0.381,0,0.68,0.055,0.893,0.164c0.213,0.109,0.319,0.258,0.319,0.444C88.65,20.86,88.519,21.144,88.257,21.473z M96.838,17.8
			c-0.895,1.512-1.342,3.599-1.342,6.261c0,0.931,0.032,1.847,0.098,2.745c0.239,3.013,0.771,5.286,1.587,6.82
			c0.666,1.239,1.365,1.627,2.097,1.167c0.512-0.318,0.792-0.915,0.835-1.791c0.044-0.876-0.131-2.262-0.523-4.158
			c-0.459-2.115-0.675-3.9-0.648-5.357c0.029-1.457,0.291-2.622,0.786-3.492c0.498-0.871,1.275-1.564,2.335-2.079
			c2.685-1.326,4.988-1.835,6.909-1.529c0.579,0.098,0.978,0.137,1.196,0.115c0.274-0.033,0.365-0.181,0.28-0.444
			c-0.122-0.362-0.542-0.693-1.262-0.994c-0.72-0.301-1.55-0.526-2.489-0.675c-0.939-0.147-1.927-0.212-2.965-0.197
			c-1.037,0.017-1.91,0.14-2.62,0.37C99.157,15.209,97.734,16.288,96.838,17.8z"/>
	</g>
	<rect fill="none" width="120" height="38"/>
</g>
</svg>
